<svg xmlns="http://www.w3.org/2000/svg" xmlns:xlink="http://www.w3.org/1999/xlink" viewBox="0 0 430 430" width="430" height="430" preserveAspectRatio="xMidYMid meet" style="width: 100%; height: 100%; transform: translate3d(0px, 0px, 0px); content-visibility: visible;"><defs><clipPath id="__lottie_element_111"><rect width="430" height="430" x="0" y="0"/></clipPath><clipPath id="__lottie_element_113"><path d="M0,0 L430,0 L430,430 L0,430z"/></clipPath><g id="__lottie_element_130"><g transform="matrix(1,0,0,1,250,282.5)" opacity="1" style="display: block;"><path fill="rgb(75,179,253)" fill-opacity="1" d=" M-40.45500183105469,-67.5 C-98.19400024414062,-67.5 -145,-20.69300079345703 -145,37.04600143432617 C-145,37.04600143432617 -145,67.5 -145,67.5 C-145,67.5 145,67.5 145,67.5 C145,67.5 145,37.04600143432617 145,37.04600143432617 C145,-20.69300079345703 98.19300079345703,-67.5 40.45399856567383,-67.5 C40.45399856567383,-67.5 -40.45500183105469,-67.5 -40.45500183105469,-67.5z"/><g opacity="1" transform="matrix(1,0,0,1,0,0)"/></g></g><filter id="__lottie_element_154" filterUnits="objectBoundingBox" x="0%" y="0%" width="100%" height="100%"><feComponentTransfer in="SourceGraphic"><feFuncA type="table" tableValues="1.0 0.0"/></feComponentTransfer></filter><mask id="__lottie_element_130_2" mask-type="alpha"><g filter="url(#__lottie_element_154)"><rect width="430" height="430" x="0" y="0" fill="#ffffff" opacity="0"/><use xmlns:ns1="http://www.w3.org/1999/xlink" ns1:href="#__lottie_element_130"/></g></mask></defs><g clip-path="url(#__lottie_element_111)"><g clip-path="url(#__lottie_element_113)" transform="matrix(1,0,0,1,0,0)" opacity="1" style="display: block;"><g transform="matrix(1,0,0,1,200.5,112.5)" opacity="1" style="display: block;"><g opacity="1" transform="matrix(1,0,0,1,0,0)"><path class="tertiary" fill="rgb(255,199,56)" fill-opacity="1" d=" M0,67.5 C37.27899932861328,67.5 67.5,37.27899932861328 67.5,0 C67.5,-37.27899932861328 37.27899932861328,-67.5 0,-67.5 C-37.27899932861328,-67.5 -67.5,-37.27899932861328 -67.5,0 C-67.5,37.27899932861328 -37.27899932861328,67.5 0,67.5z"/></g></g><g transform="matrix(1,0,0,1,185.27999877929688,113.03700256347656)" opacity="0.5" style="mix-blend-mode: multiply; display: block;"><g opacity="1" transform="matrix(1,0,0,1,0,0)"><path class="tertiary" fill="rgb(255,199,56)" fill-opacity="1" d=" M40.220001220703125,56.9630012512207 C44.33599853515625,56.9630012512207 48.367000579833984,56.595001220703125 52.279998779296875,55.888999938964844 C41.641998291015625,62.88999938964844 28.906999588012695,66.96299743652344 15.220000267028809,66.96299743652344 C-22.05900001525879,66.96299743652344 -52.279998779296875,36.742000579833984 -52.279998779296875,-0.5370000004768372 C-52.279998779296875,-33.70000076293945 -28.36400032043457,-61.277000427246094 3.1610000133514404,-66.96299743652344 C-15.175999641418457,-54.89500045776367 -27.280000686645508,-34.130001068115234 -27.280000686645508,-10.536999702453613 C-27.280000686645508,26.742000579833984 2.940999984741211,56.9630012512207 40.220001220703125,56.9630012512207z"/></g></g><g transform="matrix(1,0,0,1,200,282.5)" opacity="1" style="display: block;"><path class="secondary" fill="rgb(75,179,253)" fill-opacity="1" d=" M-40.45500183105469,-67.5 C-98.19400024414062,-67.5 -145,-20.69300079345703 -145,37.04600143432617 C-145,37.04600143432617 -145.125,61.80699920654297 -145.125,61.80699920654297 C-145.125,61.80699920654297 -145.1490020751953,65.1050033569336 -144.25,65.75 C-142.9969940185547,66.64900207519531 -140.375,67.5 -140.375,67.5 C-140.375,67.5 145,67.5 145,67.5 C145,67.5 145,37.04600143432617 145,37.04600143432617 C145,-20.69300079345703 98.19300079345703,-67.5 40.45399856567383,-67.5 C40.45399856567383,-67.5 -40.45500183105469,-67.5 -40.45500183105469,-67.5z"/><g opacity="1" transform="matrix(1,0,0,1,0,0)"/></g><g mask="url(#__lottie_element_130_2)" style="display: block;"><g transform="matrix(1,0,0,1,200,282.5)" opacity="1"><path class="secondary" fill="rgb(75,179,253)" fill-opacity="1" d=" M-40.45500183105469,-67.5 C-98.19400024414062,-67.5 -145,-20.69300079345703 -145,37.04600143432617 C-145,37.04600143432617 -145.125,61.80699920654297 -145.125,61.80699920654297 C-145.125,61.80699920654297 -145.1490020751953,65.1050033569336 -144.25,65.75 C-142.9969940185547,66.64900207519531 -140.375,67.5 -140.375,67.5 C-140.375,67.5 145,67.5 145,67.5 C145,67.5 145,37.04600143432617 145,37.04600143432617 C145,-20.69300079345703 98.19300079345703,-67.5 40.45399856567383,-67.5 C40.45399856567383,-67.5 -40.45500183105469,-67.5 -40.45500183105469,-67.5z"/><path class="secondary" fill="rgb(75,179,253)" fill-opacity="0.5" d=" M-40.45500183105469,-67.5 C-98.19400024414062,-67.5 -145,-20.69300079345703 -145,37.04600143432617 C-145,37.04600143432617 -145.125,61.80699920654297 -145.125,61.80699920654297 C-145.125,61.80699920654297 -145.1490020751953,65.1050033569336 -144.25,65.75 C-142.9969940185547,66.64900207519531 -140.375,67.5 -140.375,67.5 C-140.375,67.5 145,67.5 145,67.5 C145,67.5 145,37.04600143432617 145,37.04600143432617 C145,-20.69300079345703 98.19300079345703,-67.5 40.45399856567383,-67.5 C40.45399856567383,-67.5 -40.45500183105469,-67.5 -40.45500183105469,-67.5z" style="mix-blend-mode: multiply;"/><g opacity="1" transform="matrix(1,0,0,1,0,0)"/></g></g><g transform="matrix(1,0,0,1,200.5,112.5)" opacity="1" style="display: block;"><g opacity="1" transform="matrix(1,0,0,1,0,0)"><path stroke-linecap="round" stroke-linejoin="round" fill-opacity="0" class="primary" stroke="rgb(18,19,49)" stroke-opacity="1" stroke-width="7" d=" M0,67.5 C37.27899932861328,67.5 67.5,37.27899932861328 67.5,0 C67.5,-37.27899932861328 37.27899932861328,-67.5 0,-67.5 C-37.27899932861328,-67.5 -67.5,-37.27899932861328 -67.5,0 C-67.5,37.27899932861328 -37.27899932861328,67.5 0,67.5z"/></g></g><g transform="matrix(1,0,0,1,200,282.5)" opacity="1" style="display: block;"><g opacity="1" transform="matrix(1,0,0,1,0,0)"><path stroke-linecap="butt" stroke-linejoin="round" fill-opacity="0" class="primary" stroke="rgb(18,19,49)" stroke-opacity="1" stroke-width="7" d=" M-40.45500183105469,-67.5 C-98.19400024414062,-67.5 -145,-20.69300079345703 -145,37.04600143432617 C-145,37.04600143432617 -145,67.5 -145,67.5 C-145,67.5 145,67.5 145,67.5 C145,67.5 145,37.04600143432617 145,37.04600143432617 C145,-20.69300079345703 98.19300079345703,-67.5 40.45399856567383,-67.5 C40.45399856567383,-67.5 -40.45500183105469,-67.5 -40.45500183105469,-67.5z"/></g></g><g transform="matrix(1,0,0,1,322.5,314.5)" opacity="1" style="display: block;"><g opacity="1" transform="matrix(1,0,0,1,0,0)"><path class="quaternary" fill="rgb(58,51,71)" fill-opacity="1" d=" M52.5,-65 C52.5,-65 -52.5,-65 -52.5,-65 C-52.5,-65 -52.5,50 -52.5,50 C-52.5,58.284000396728516 -45.784000396728516,65 -37.5,65 C-37.5,65 37.5,65 37.5,65 C45.784000396728516,65 52.5,58.284000396728516 52.5,50 C52.5,50 52.5,-65 52.5,-65z"/></g></g><g transform="matrix(1,0,0,1,322.5,314.5)" opacity="1" style="display: block;"><g opacity="1" transform="matrix(1,0,0,1,0,0)"><path class="quaternary" fill="rgb(58,51,71)" fill-opacity="1" d=" M52.5,-65 C52.5,-65 -52.5,-65 -52.5,-65 C-52.5,-65 -52.5,50 -52.5,50 C-52.5,58.284000396728516 -45.784000396728516,65 -37.5,65 C-37.5,65 37.5,65 37.5,65 C45.784000396728516,65 52.5,58.284000396728516 52.5,50 C52.5,50 52.5,-65 52.5,-65z"/><path stroke-linecap="round" stroke-linejoin="round" fill-opacity="0" class="primary" stroke="rgb(18,19,49)" stroke-opacity="1" stroke-width="7" d=" M52.5,-65 C52.5,-65 -52.5,-65 -52.5,-65 C-52.5,-65 -52.5,50 -52.5,50 C-52.5,58.284000396728516 -45.784000396728516,65 -37.5,65 C-37.5,65 37.5,65 37.5,65 C45.784000396728516,65 52.5,58.284000396728516 52.5,50 C52.5,50 52.5,-65 52.5,-65z"/></g></g><g transform="matrix(1,0,0,1,310.2080078125,318.4679870605469)" opacity="1" style="display: block;"><g opacity="1" transform="matrix(1,0,0,1,0,0)"><path stroke-linecap="round" stroke-linejoin="round" fill-opacity="0" class="primary" stroke="rgb(18,19,49)" stroke-opacity="1" stroke-width="7" d=" M0,29.385000228881836 C0,29.385000228881836 0,-29.385000228881836 0,-29.385000228881836 M28.5,29.385000228881836 C28.5,29.385000228881836 28.5,-29.385000228881836 28.5,-29.385000228881836"/></g></g><g transform="matrix(1,0,0,1,322.5,249.5)" opacity="1" style="display: block;"><g opacity="1" transform="matrix(1,0,0,1,0,0)"><path stroke-linecap="round" stroke-linejoin="round" fill-opacity="0" class="primary" stroke="rgb(18,19,49)" stroke-opacity="1" stroke-width="7" d=" M62.5,0 C62.5,0 -62.5,0 -62.5,0"/></g></g><g transform="matrix(1,0,0,1,323,237)" opacity="1" style="display: block;"><g opacity="1" transform="matrix(1,0,0,1,0,0)"><path class="primary" fill="rgb(18,19,49)" fill-opacity="1" d=" M0,-12.5 C-13.807000160217285,-12.5 -25,-1.3070000410079956 -25,12.5 C-25,12.5 25,12.5 25,12.5 C25,-1.3070000410079956 13.807000160217285,-12.5 0,-12.5z"/></g></g></g></g></svg>